0
SECTION
2
ENTITIES
999
Created by Metasequoia
0
3DFACE
8
layer1
62
1
10
0.00000
20
0.50000
30
0.00000
11
-0.10810
21
0.46959
31
-0.10810
12
-0.15288
22
0.46959
32
-0.00000
13
-0.15288
23
0.46959
33
-0.00000
0
3DFACE
8
layer1
62
1
10
0.00000
20
0.50000
30
0.00000
11
-0.00000
21
0.46959
31
-0.15288
12
-0.10810
22
0.46959
32
-0.10810
13
-0.10810
23
0.46959
33
-0.10810
0
3DFACE
8
layer1
62
1
10
0.00000
20
0.50000
30
0.00000
11
0.10810
21
0.46959
31
-0.10810
12
-0.00000
22
0.46959
32
-0.15288
13
-0.00000
23
0.46959
33
-0.15288
0
3DFACE
8
layer1
62
1
10
0.00000
20
0.50000
30
0.00000
11
0.15288
21
0.46959
31
0.00000
12
0.10810
22
0.46959
32
-0.10810
13
0.10810
23
0.46959
33
-0.10810
0
3DFACE
8
layer1
62
1
10
0.00000
20
0.50000
30
0.00000
11
0.10810
21
0.46959
31
0.10810
12
0.15288
22
0.46959
32
0.00000
13
0.15288
23
0.46959
33
0.00000
0
3DFACE
8
layer1
62
1
10
0.00000
20
0.50000
30
0.00000
11
-0.00000
21
0.46959
31
0.15288
12
0.10810
22
0.46959
32
0.10810
13
0.10810
23
0.46959
33
0.10810
0
3DFACE
8
layer1
62
1
10
0.00000
20
0.50000
30
0.00000
11
-0.10810
21
0.46959
31
0.10810
12
-0.00000
22
0.46959
32
0.15288
13
-0.00000
23
0.46959
33
0.15288
0
3DFACE
8
layer1
62
1
10
0.00000
20
0.50000
30
0.00000
11
-0.15288
21
0.46959
31
-0.00000
12
-0.10810
22
0.46959
32
0.10810
13
-0.10810
23
0.46959
33
0.10810
0
3DFACE
8
layer1
62
1
10
-0.15288
20
0.46959
30
-0.00000
11
-0.10810
21
0.46959
31
-0.10810
12
-0.19974
22
0.38299
32
-0.19974
13
-0.28248
23
0.38299
33
0.00000
0
3DFACE
8
layer1
62
1
10
-0.10810
20
0.46959
30
-0.10810
11
-0.00000
21
0.46959
31
-0.15288
12
-0.00000
22
0.38299
32
-0.28248
13
-0.19974
23
0.38299
33
-0.19974
0
3DFACE
8
layer1
62
1
10
-0.00000
20
0.46959
30
-0.15288
11
0.10810
21
0.46959
31
-0.10810
12
0.19974
22
0.38299
32
-0.19974
13
-0.00000
23
0.38299
33
-0.28248
0
3DFACE
8
layer1
62
1
10
0.10810
20
0.46959
30
-0.10810
11
0.15288
21
0.46959
31
0.00000
12
0.28248
22
0.38299
32
0.00000
13
0.19974
23
0.38299
33
-0.19974
0
3DFACE
8
layer1
62
1
10
0.15288
20
0.46959
30
0.00000
11
0.10810
21
0.46959
31
0.10810
12
0.19974
22
0.38299
32
0.19974
13
0.28248
23
0.38299
33
0.00000
0
3DFACE
8
layer1
62
1
10
0.10810
20
0.46959
30
0.10810
11
-0.00000
21
0.46959
31
0.15288
12
-0.00000
22
0.38299
32
0.28248
13
0.19974
23
0.38299
33
0.19974
0
3DFACE
8
layer1
62
1
10
-0.00000
20
0.46959
30
0.15288
11
-0.10810
21
0.46959
31
0.10810
12
-0.19974
22
0.38299
32
0.19974
13
-0.00000
23
0.38299
33
0.28248
0
3DFACE
8
layer1
62
1
10
-0.10810
20
0.46959
30
0.10810
11
-0.15288
21
0.46959
31
-0.00000
12
-0.28248
22
0.38299
32
0.00000
13
-0.19974
23
0.38299
33
0.19974
0
3DFACE
8
layer1
62
1
10
-0.28248
20
0.38299
30
0.00000
11
-0.19974
21
0.38299
31
-0.19974
12
-0.26097
22
0.25339
32
-0.26097
13
-0.36907
23
0.25339
33
0.00000
0
3DFACE
8
layer1
62
1
10
-0.19974
20
0.38299
30
-0.19974
11
-0.00000
21
0.38299
31
-0.28248
12
-0.00000
22
0.25339
32
-0.36907
13
-0.26097
23
0.25339
33
-0.26097
0
3DFACE
8
layer1
62
1
10
-0.00000
20
0.38299
30
-0.28248
11
0.19974
21
0.38299
31
-0.19974
12
0.26097
22
0.25339
32
-0.26097
13
-0.00000
23
0.25339
33
-0.36907
0
3DFACE
8
layer1
62
1
10
0.19974
20
0.38299
30
-0.19974
11
0.28248
21
0.38299
31
0.00000
12
0.36907
22
0.25339
32
0.00000
13
0.26097
23
0.25339
33
-0.26097
0
3DFACE
8
layer1
62
1
10
0.28248
20
0.38299
30
0.00000
11
0.19974
21
0.38299
31
0.19974
12
0.26097
22
0.25339
32
0.26097
13
0.36907
23
0.25339
33
0.00000
0
3DFACE
8
layer1
62
1
10
0.19974
20
0.38299
30
0.19974
11
-0.00000
21
0.38299
31
0.28248
12
-0.00000
22
0.25339
32
0.36907
13
0.26097
23
0.25339
33
0.26097
0
3DFACE
8
layer1
62
1
10
-0.00000
20
0.38299
30
0.28248
11
-0.19974
21
0.38299
31
0.19974
12
-0.26097
22
0.25339
32
0.26097
13
-0.00000
23
0.25339
33
0.36907
0
3DFACE
8
layer1
62
1
10
-0.19974
20
0.38299
30
0.19974
11
-0.28248
21
0.38299
31
0.00000
12
-0.36907
22
0.25339
32
0.00000
13
-0.26097
23
0.25339
33
0.26097
0
3DFACE
8
layer1
62
1
10
-0.36907
20
0.25339
30
0.00000
11
-0.26097
21
0.25339
31
-0.26097
12
-0.28248
22
0.10052
32
-0.28248
13
-0.39948
23
0.10052
33
0.00000
0
3DFACE
8
layer1
62
1
10
-0.26097
20
0.25339
30
-0.26097
11
-0.00000
21
0.25339
31
-0.36907
12
-0.00000
22
0.10052
32
-0.39948
13
-0.28248
23
0.10052
33
-0.28248
0
3DFACE
8
layer1
62
1
10
-0.00000
20
0.25339
30
-0.36907
11
0.26097
21
0.25339
31
-0.26097
12
0.28248
22
0.10052
32
-0.28248
13
-0.00000
23
0.10052
33
-0.39948
0
3DFACE
8
layer1
62
1
10
0.26097
20
0.25339
30
-0.26097
11
0.36907
21
0.25339
31
0.00000
12
0.39948
22
0.10052
32
0.00000
13
0.28248
23
0.10052
33
-0.28248
0
3DFACE
8
layer1
62
1
10
0.36907
20
0.25339
30
0.00000
11
0.26097
21
0.25339
31
0.26097
12
0.28248
22
0.10052
32
0.28248
13
0.39948
23
0.10052
33
0.00000
0
3DFACE
8
layer1
62
1
10
0.26097
20
0.25339
30
0.26097
11
-0.00000
21
0.25339
31
0.36907
12
-0.00000
22
0.10052
32
0.39948
13
0.28248
23
0.10052
33
0.28248
0
3DFACE
8
layer1
62
1
10
-0.00000
20
0.25339
30
0.36907
11
-0.26097
21
0.25339
31
0.26097
12
-0.28248
22
0.10052
32
0.28248
13
-0.00000
23
0.10052
33
0.39948
0
3DFACE
8
layer1
62
1
10
-0.26097
20
0.25339
30
0.26097
11
-0.36907
21
0.25339
31
0.00000
12
-0.39948
22
0.10052
32
0.00000
13
-0.28248
23
0.10052
33
0.28248
0
3DFACE
8
layer1
62
1
10
-0.39948
20
0.10052
30
0.00000
11
-0.28248
21
0.10052
31
-0.28248
12
-0.26097
22
-0.05236
32
-0.26097
13
-0.36907
23
-0.05236
33
0.00000
0
3DFACE
8
layer1
62
1
10
-0.28248
20
0.10052
30
-0.28248
11
-0.00000
21
0.10052
31
-0.39948
12
-0.00000
22
-0.05236
32
-0.36907
13
-0.26097
23
-0.05236
33
-0.26097
0
3DFACE
8
layer1
62
1
10
-0.00000
20
0.10052
30
-0.39948
11
0.28248
21
0.10052
31
-0.28248
12
0.26097
22
-0.05236
32
-0.26097
13
-0.00000
23
-0.05236
33
-0.36907
0
3DFACE
8
layer1
62
1
10
0.28248
20
0.10052
30
-0.28248
11
0.39948
21
0.10052
31
0.00000
12
0.36907
22
-0.05236
32
0.00000
13
0.26097
23
-0.05236
33
-0.26097
0
3DFACE
8
layer1
62
1
10
0.39948
20
0.10052
30
0.00000
11
0.28248
21
0.10052
31
0.28248
12
0.26097
22
-0.05236
32
0.26097
13
0.36907
23
-0.05236
33
0.00000
0
3DFACE
8
layer1
62
1
10
0.28248
20
0.10052
30
0.28248
11
-0.00000
21
0.10052
31
0.39948
12
-0.00000
22
-0.05236
32
0.36907
13
0.26097
23
-0.05236
33
0.26097
0
3DFACE
8
layer1
62
1
10
-0.00000
20
0.10052
30
0.39948
11
-0.28248
21
0.10052
31
0.28248
12
-0.26097
22
-0.05236
32
0.26097
13
-0.00000
23
-0.05236
33
0.36907
0
3DFACE
8
layer1
62
1
10
-0.28248
20
0.10052
30
0.28248
11
-0.39948
21
0.10052
31
0.00000
12
-0.36907
22
-0.05236
32
0.00000
13
-0.26097
23
-0.05236
33
0.26097
0
3DFACE
8
layer1
62
1
10
-0.36907
20
-0.05236
30
0.00000
11
-0.26097
21
-0.05236
31
-0.26097
12
-0.19974
22
-0.18196
32
-0.19974
13
-0.28248
23
-0.18196
33
0.00000
0
3DFACE
8
layer1
62
1
10
-0.26097
20
-0.05236
30
-0.26097
11
-0.00000
21
-0.05236
31
-0.36907
12
-0.00000
22
-0.18196
32
-0.28248
13
-0.19974
23
-0.18196
33
-0.19974
0
3DFACE
8
layer1
62
1
10
-0.00000
20
-0.05236
30
-0.36907
11
0.26097
21
-0.05236
31
-0.26097
12
0.19974
22
-0.18196
32
-0.19974
13
-0.00000
23
-0.18196
33
-0.28248
0
3DFACE
8
layer1
62
1
10
0.26097
20
-0.05236
30
-0.26097
11
0.36907
21
-0.05236
31
0.00000
12
0.28248
22
-0.18196
32
0.00000
13
0.19974
23
-0.18196
33
-0.19974
0
3DFACE
8
layer1
62
1
10
0.36907
20
-0.05236
30
0.00000
11
0.26097
21
-0.05236
31
0.26097
12
0.19974
22
-0.18196
32
0.19974
13
0.28248
23
-0.18196
33
0.00000
0
3DFACE
8
layer1
62
1
10
0.26097
20
-0.05236
30
0.26097
11
-0.00000
21
-0.05236
31
0.36907
12
-0.00000
22
-0.18196
32
0.28248
13
0.19974
23
-0.18196
33
0.19974
0
3DFACE
8
layer1
62
1
10
-0.00000
20
-0.05236
30
0.36907
11
-0.26097
21
-0.05236
31
0.26097
12
-0.19974
22
-0.18196
32
0.19974
13
-0.00000
23
-0.18196
33
0.28248
0
3DFACE
8
layer1
62
1
10
-0.26097
20
-0.05236
30
0.26097
11
-0.36907
21
-0.05236
31
0.00000
12
-0.28248
22
-0.18196
32
0.00000
13
-0.19974
23
-0.18196
33
0.19974
0
3DFACE
8
layer1
62
1
10
-0.28248
20
-0.18196
30
0.00000
11
-0.19974
21
-0.18196
31
-0.19974
12
-0.10810
22
-0.26856
32
-0.10810
13
-0.15288
23
-0.26856
33
-0.00000
0
3DFACE
8
layer1
62
1
10
-0.19974
20
-0.18196
30
-0.19974
11
-0.00000
21
-0.18196
31
-0.28248
12
-0.00000
22
-0.26856
32
-0.15288
13
-0.10810
23
-0.26856
33
-0.10810
0
3DFACE
8
layer1
62
1
10
-0.00000
20
-0.18196
30
-0.28248
11
0.19974
21
-0.18196
31
-0.19974
12
0.10810
22
-0.26856
32
-0.10810
13
-0.00000
23
-0.26856
33
-0.15288
0
3DFACE
8
layer1
62
1
10
0.19974
20
-0.18196
30
-0.19974
11
0.28248
21
-0.18196
31
0.00000
12
0.15288
22
-0.26856
32
0.00000
13
0.10810
23
-0.26856
33
-0.10810
0
3DFACE
8
layer1
62
1
10
0.28248
20
-0.18196
30
0.00000
11
0.19974
21
-0.18196
31
0.19974
12
0.10810
22
-0.26856
32
0.10810
13
0.15288
23
-0.26856
33
0.00000
0
3DFACE
8
layer1
62
1
10
0.19974
20
-0.18196
30
0.19974
11
-0.00000
21
-0.18196
31
0.28248
12
-0.00000
22
-0.26856
32
0.15288
13
0.10810
23
-0.26856
33
0.10810
0
3DFACE
8
layer1
62
1
10
-0.00000
20
-0.18196
30
0.28248
11
-0.19974
21
-0.18196
31
0.19974
12
-0.10810
22
-0.26856
32
0.10810
13
-0.00000
23
-0.26856
33
0.15288
0
3DFACE
8
layer1
62
1
10
-0.19974
20
-0.18196
30
0.19974
11
-0.28248
21
-0.18196
31
0.00000
12
-0.15288
22
-0.26856
32
-0.00000
13
-0.10810
23
-0.26856
33
0.10810
0
3DFACE
8
layer1
62
1
10
-0.15288
20
-0.26856
30
-0.00000
11
-0.10810
21
-0.26856
31
-0.10810
12
0.00000
22
-0.29896
32
0.00000
13
0.00000
23
-0.29896
33
0.00000
0
3DFACE
8
layer1
62
1
10
-0.10810
20
-0.26856
30
-0.10810
11
-0.00000
21
-0.26856
31
-0.15288
12
0.00000
22
-0.29896
32
0.00000
13
0.00000
23
-0.29896
33
0.00000
0
3DFACE
8
layer1
62
1
10
-0.00000
20
-0.26856
30
-0.15288
11
0.10810
21
-0.26856
31
-0.10810
12
0.00000
22
-0.29896
32
0.00000
13
0.00000
23
-0.29896
33
0.00000
0
3DFACE
8
layer1
62
1
10
0.10810
20
-0.26856
30
-0.10810
11
0.15288
21
-0.26856
31
0.00000
12
0.00000
22
-0.29896
32
0.00000
13
0.00000
23
-0.29896
33
0.00000
0
3DFACE
8
layer1
62
1
10
0.15288
20
-0.26856
30
0.00000
11
0.10810
21
-0.26856
31
0.10810
12
0.00000
22
-0.29896
32
0.00000
13
0.00000
23
-0.29896
33
0.00000
0
3DFACE
8
layer1
62
1
10
0.10810
20
-0.26856
30
0.10810
11
-0.00000
21
-0.26856
31
0.15288
12
0.00000
22
-0.29896
32
0.00000
13
0.00000
23
-0.29896
33
0.00000
0
3DFACE
8
layer1
62
1
10
-0.00000
20
-0.26856
30
0.15288
11
-0.10810
21
-0.26856
31
0.10810
12
0.00000
22
-0.29896
32
0.00000
13
0.00000
23
-0.29896
33
0.00000
0
3DFACE
8
layer1
62
1
10
-0.10810
20
-0.26856
30
0.10810
11
-0.15288
21
-0.26856
31
-0.00000
12
0.00000
22
-0.29896
32
0.00000
13
0.00000
23
-0.29896
33
0.00000
0
3DFACE
8
layer1
62
1
10
-0.23046
20
0.46317
30
-0.17960
11
-0.16337
21
0.40328
31
-0.18306
12
-0.45287
22
0.06968
32
-0.02322
13
-0.51996
23
0.12956
33
-0.01975
0
3DFACE
8
layer1
62
1
10
-0.14380
20
0.42406
30
-0.16330
11
-0.16337
21
0.40328
31
-0.18306
12
-0.23046
22
0.46317
32
-0.17960
13
-0.21090
23
0.48395
33
-0.15983
0
3DFACE
8
layer1
62
1
10
-0.41130
20
0.07067
30
-0.01477
11
-0.45287
21
0.06968
31
-0.02322
12
-0.16337
22
0.40328
32
-0.18306
13
-0.13993
23
0.38280
33
-0.15424
0
3DFACE
8
layer1
62
1
10
-0.51925
20
0.12921
30
0.00005
11
-0.51996
21
0.12956
31
-0.01975
12
-0.45287
22
0.06968
32
-0.02322
13
-0.45216
23
0.06933
33
-0.00341
0
3DFACE
8
layer1
62
1
10
-0.25175
20
0.48260
30
-0.14847
11
-0.23046
21
0.46317
31
-0.17960
12
-0.51996
22
0.12956
32
-0.01975
13
-0.52313
23
0.17048
33
-0.00900
0
3DFACE
8
layer1
62
1
10
-0.25175
20
0.48260
30
-0.14847
11
-0.21090
21
0.48395
31
-0.15983
12
-0.23046
22
0.46317
32
-0.17960
13
-0.23046
23
0.46317
33
-0.17960
0
3DFACE
8
layer1
62
1
10
-0.14380
20
0.42406
30
-0.16330
11
-0.13993
21
0.38280
31
-0.15424
12
-0.16337
22
0.40328
32
-0.18306
13
-0.16337
23
0.40328
33
-0.18306
0
3DFACE
8
layer1
62
1
10
-0.41130
20
0.07067
30
-0.01477
11
-0.45216
21
0.06933
31
-0.00341
12
-0.45287
22
0.06968
32
-0.02322
13
-0.45287
23
0.06968
33
-0.02322
0
3DFACE
8
layer1
62
1
10
-0.51925
20
0.12921
30
0.00005
11
-0.52313
21
0.17048
31
-0.00900
12
-0.51996
22
0.12956
32
-0.01975
13
-0.51996
23
0.12956
33
-0.01975
0
3DFACE
8
layer1
62
1
10
-0.15151
20
0.39748
30
0.14685
11
-0.21860
21
0.45737
31
0.15031
12
-0.51925
22
0.12921
32
0.00005
13
-0.45216
23
0.06933
33
-0.00341
0
3DFACE
8
layer1
62
1
10
-0.20048
20
0.47885
30
0.12994
11
-0.21860
21
0.45737
31
0.15031
12
-0.15151
22
0.39748
32
0.14685
13
-0.13338
23
0.41897
33
0.12647
0
3DFACE
8
layer1
62
1
10
-0.52313
20
0.17048
30
-0.00900
11
-0.51925
21
0.12921
31
0.00005
12
-0.21860
22
0.45737
32
0.15031
13
-0.24204
23
0.47786
33
0.12149
0
3DFACE
8
layer1
62
1
10
-0.13022
20
0.37805
30
0.11572
11
-0.15151
21
0.39748
31
0.14685
12
-0.45216
22
0.06933
32
-0.00341
13
-0.41130
23
0.07067
33
-0.01477
0
3DFACE
8
layer1
62
1
10
-0.13022
20
0.37805
30
0.11572
11
-0.13338
21
0.41897
31
0.12647
12
-0.15151
22
0.39748
32
0.14685
13
-0.15151
23
0.39748
33
0.14685
0
3DFACE
8
layer1
62
1
10
-0.20048
20
0.47885
30
0.12994
11
-0.24204
21
0.47786
31
0.12149
12
-0.21860
22
0.45737
32
0.15031
13
-0.21860
23
0.45737
33
0.15031
0
3DFACE
8
layer1
62
1
10
-0.13338
20
0.41897
30
0.12647
11
-0.14380
21
0.42406
31
-0.16330
12
-0.21090
22
0.48395
32
-0.15983
13
-0.20048
23
0.47885
33
0.12994
0
3DFACE
8
layer1
62
1
10
-0.13993
20
0.38280
30
-0.15424
11
-0.14380
21
0.42406
31
-0.16330
12
-0.13338
22
0.41897
32
0.12647
13
-0.13022
23
0.37805
33
0.11572
0
3DFACE
8
layer1
62
1
10
-0.24204
20
0.47786
30
0.12149
11
-0.20048
21
0.47885
31
0.12994
12
-0.21090
22
0.48395
32
-0.15983
13
-0.25175
23
0.48260
33
-0.14847
0
3DFACE
8
layer1
62
1
10
-0.52313
20
0.17048
30
-0.00900
11
-0.24204
21
0.47786
31
0.12149
12
-0.25175
22
0.48260
32
-0.14847
13
-0.25175
23
0.48260
33
-0.14847
0
3DFACE
8
layer1
62
1
10
-0.41130
20
0.07067
30
-0.01477
11
-0.13993
21
0.38280
31
-0.15424
12
-0.13022
22
0.37805
32
0.11572
13
-0.13022
23
0.37805
33
0.11572
0
3DFACE
8
layer1
62
1
10
-0.24700
20
0.12692
30
-0.34427
11
-0.24072
21
0.11379
31
-0.30362
12
-0.21364
22
0.10059
32
-0.33662
13
-0.21364
23
0.10059
33
-0.33662
0
3DFACE
8
layer1
62
1
10
-0.19831
20
0.08733
30
-0.32758
11
-0.24072
21
0.11379
31
-0.30362
12
-0.24700
22
0.12692
32
-0.34427
13
-0.21454
23
0.10667
33
-0.36261
0
3DFACE
8
layer1
62
1
10
-0.24641
20
0.09093
30
-0.34838
11
-0.21364
21
0.10059
31
-0.33662
12
-0.24072
22
0.11379
32
-0.30362
13
-0.26340
23
0.09921
33
-0.32767
0
3DFACE
8
layer1
62
1
10
-0.26204
20
0.12983
30
-0.30471
11
-0.24700
21
0.12692
31
-0.34427
12
-0.21364
22
0.10059
32
-0.33662
13
-0.23330
23
0.10439
33
-0.28493
0
3DFACE
8
layer1
62
1
10
-0.21727
20
0.09732
30
-0.30804
11
-0.21454
21
0.10667
31
-0.36261
12
-0.24700
22
0.12692
32
-0.34427
13
-0.24700
23
0.12692
33
-0.34427
0
3DFACE
8
layer1
62
1
10
-0.21727
20
0.09732
30
-0.30804
11
-0.18368
21
0.08094
31
-0.34899
12
-0.21454
22
0.10667
32
-0.36261
13
-0.21454
23
0.10667
33
-0.36261
0
3DFACE
8
layer1
62
1
10
-0.21727
20
0.09732
30
-0.30804
11
-0.17250
21
0.06481
31
-0.31137
12
-0.18368
22
0.08094
32
-0.34899
13
-0.18368
23
0.08094
33
-0.34899
0
3DFACE
8
layer1
62
1
10
-0.21727
20
0.09732
30
-0.30804
11
-0.18754
21
0.06772
31
-0.27181
12
-0.17250
22
0.06481
32
-0.31137
13
-0.17250
23
0.06481
33
-0.31137
0
3DFACE
8
layer1
62
1
10
-0.21727
20
0.09732
30
-0.30804
11
-0.22000
21
0.08797
31
-0.25347
12
-0.18754
22
0.06772
32
-0.27181
13
-0.18754
23
0.06772
33
-0.27181
0
3DFACE
8
layer1
62
1
10
-0.21727
20
0.09732
30
-0.30804
11
-0.25086
21
0.11370
31
-0.26710
12
-0.22000
22
0.08797
32
-0.25347
13
-0.22000
23
0.08797
33
-0.25347
0
3DFACE
8
layer1
62
1
10
-0.21727
20
0.09732
30
-0.30804
11
-0.26204
21
0.12983
31
-0.30471
12
-0.25086
22
0.11370
32
-0.26710
13
-0.25086
23
0.11370
33
-0.26710
0
3DFACE
8
layer1
62
1
10
-0.21727
20
0.09732
30
-0.30804
11
-0.24700
21
0.12692
31
-0.34427
12
-0.26204
22
0.12983
32
-0.30471
13
-0.26204
23
0.12983
33
-0.30471
0
3DFACE
8
layer1
62
1
10
-0.19831
20
0.08733
30
-0.32758
11
-0.22099
21
0.07275
31
-0.35163
12
-0.26340
22
0.09921
32
-0.32767
13
-0.24072
23
0.11379
33
-0.30362
0
3DFACE
8
layer1
62
1
10
-0.24641
20
0.09093
30
-0.34838
11
-0.26607
21
0.09473
31
-0.29669
12
-0.23330
22
0.10439
32
-0.28493
13
-0.21364
23
0.10059
33
-0.33662
0
3DFACE
8
layer1
62
1
10
-0.21454
20
0.10667
30
-0.36261
11
-0.23441
21
0.11354
31
-0.32489
12
-0.19831
22
0.08733
32
-0.32758
13
-0.19831
23
0.08733
33
-0.32758
0
3DFACE
8
layer1
62
1
10
-0.19409
20
0.07993
30
-0.30708
11
-0.23441
21
0.11354
31
-0.32489
12
-0.21454
22
0.10667
32
-0.36261
13
-0.18368
23
0.08094
33
-0.34899
0
3DFACE
8
layer1
62
1
10
-0.22099
20
0.07275
30
-0.35163
11
-0.19831
21
0.08733
31
-0.32758
12
-0.23441
22
0.11354
32
-0.32489
13
-0.24364
23
0.08920
33
-0.34994
0
3DFACE
8
layer1
62
1
10
-0.19409
20
0.07993
30
-0.30708
11
-0.20332
21
0.05558
31
-0.33214
12
-0.24364
22
0.08920
32
-0.34994
13
-0.23441
23
0.11354
33
-0.32489
0
3DFACE
8
layer1
62
1
10
-0.18368
20
0.08094
30
-0.34899
11
-0.21806
21
0.10379
31
-0.33630
12
-0.19409
22
0.07993
32
-0.30708
13
-0.19409
23
0.07993
33
-0.30708
0
3DFACE
8
layer1
62
1
10
-0.20345
20
0.08271
30
-0.28715
11
-0.21806
21
0.10379
31
-0.33630
12
-0.18368
22
0.08094
32
-0.34899
13
-0.17250
23
0.06481
33
-0.31137
0
3DFACE
8
layer1
62
1
10
-0.20332
20
0.05558
30
-0.33214
11
-0.19409
21
0.07993
31
-0.30708
12
-0.21806
22
0.10379
32
-0.33630
13
-0.21836
23
0.07056
33
-0.35046
0
3DFACE
8
layer1
62
1
10
-0.20345
20
0.08271
30
-0.28715
11
-0.20375
21
0.04948
31
-0.30132
12
-0.21836
22
0.07056
32
-0.35046
13
-0.21806
23
0.10379
33
-0.33630
0
3DFACE
8
layer1
62
1
10
-0.17250
20
0.06481
30
-0.31137
11
-0.20124
21
0.09025
31
-0.33115
12
-0.20345
22
0.08271
32
-0.28715
13
-0.20345
23
0.08271
33
-0.28715
0
3DFACE
8
layer1
62
1
10
-0.22090
20
0.09405
30
-0.27946
11
-0.20124
21
0.09025
31
-0.33115
12
-0.17250
22
0.06481
32
-0.31137
13
-0.18754
23
0.06772
33
-0.27181
0
3DFACE
8
layer1
62
1
10
-0.20375
20
0.04948
30
-0.30132
11
-0.20345
21
0.08271
31
-0.28715
12
-0.20124
22
0.09025
32
-0.33115
13
-0.20236
23
0.05421
33
-0.32893
0
3DFACE
8
layer1
62
1
10
-0.22090
20
0.09405
30
-0.27946
11
-0.22202
21
0.05801
31
-0.27724
12
-0.20236
22
0.05421
32
-0.32893
13
-0.20124
23
0.09025
33
-0.33115
0
3DFACE
8
layer1
62
1
10
-0.18754
20
0.06772
30
-0.27181
11
-0.19382
21
0.08085
31
-0.31247
12
-0.22090
22
0.09405
32
-0.27946
13
-0.22090
23
0.09405
33
-0.27946
0
3DFACE
8
layer1
62
1
10
-0.23623
20
0.10731
30
-0.28851
11
-0.19382
21
0.08085
31
-0.31247
12
-0.18754
22
0.06772
32
-0.27181
13
-0.22000
23
0.08797
33
-0.25347
0
3DFACE
8
layer1
62
1
10
-0.22202
20
0.05801
30
-0.27724
11
-0.22090
21
0.09405
31
-0.27946
12
-0.19382
22
0.08085
32
-0.31247
13
-0.20503
23
0.04972
33
-0.29795
0
3DFACE
8
layer1
62
1
10
-0.23623
20
0.10731
30
-0.28851
11
-0.24744
21
0.07618
31
-0.27398
12
-0.20503
22
0.04972
32
-0.29795
13
-0.19382
23
0.08085
33
-0.31247
0
3DFACE
8
layer1
62
1
10
-0.22000
20
0.08797
30
-0.25347
11
-0.20013
21
0.08110
31
-0.29120
12
-0.23623
22
0.10731
32
-0.28851
13
-0.23623
23
0.10731
33
-0.28851
0
3DFACE
8
layer1
62
1
10
-0.24045
20
0.11471
30
-0.30900
11
-0.20013
21
0.08110
31
-0.29120
12
-0.22000
22
0.08797
32
-0.25347
13
-0.25086
23
0.11370
33
-0.26710
0
3DFACE
8
layer1
62
1
10
-0.24744
20
0.07618
30
-0.27398
11
-0.23623
21
0.10731
31
-0.28851
12
-0.20013
22
0.08110
32
-0.29120
13
-0.22479
23
0.05974
33
-0.27567
0
3DFACE
8
layer1
62
1
10
-0.24045
20
0.11471
30
-0.30900
11
-0.26511
21
0.09335
31
-0.29347
12
-0.22479
22
0.05974
32
-0.27567
13
-0.20013
23
0.08110
33
-0.29120
0
3DFACE
8
layer1
62
1
10
-0.25086
20
0.11370
30
-0.26710
11
-0.21648
21
0.09085
31
-0.27979
12
-0.24045
22
0.11471
32
-0.30900
13
-0.24045
23
0.11471
33
-0.30900
0
3DFACE
8
layer1
62
1
10
-0.23109
20
0.11193
30
-0.32893
11
-0.21648
21
0.09085
31
-0.27979
12
-0.25086
22
0.11370
32
-0.26710
13
-0.26204
23
0.12983
33
-0.30471
0
3DFACE
8
layer1
62
1
10
-0.26511
20
0.09335
30
-0.29347
11
-0.24045
21
0.11471
31
-0.30900
12
-0.21648
22
0.09085
32
-0.27979
13
-0.25008
23
0.07838
33
-0.27515
0
3DFACE
8
layer1
62
1
10
-0.23109
20
0.11193
30
-0.32893
11
-0.26469
21
0.09946
31
-0.32429
12
-0.25008
22
0.07838
32
-0.27515
13
-0.21648
23
0.09085
33
-0.27979
0
3DFACE
8
layer1
62
1
10
-0.26204
20
0.12983
30
-0.30471
11
-0.23330
21
0.10439
31
-0.28493
12
-0.23109
22
0.11193
32
-0.32893
13
-0.23109
23
0.11193
33
-0.32893
0
3DFACE
8
layer1
62
1
10
-0.26469
20
0.09946
30
-0.32429
11
-0.23109
21
0.11193
31
-0.32893
12
-0.23330
22
0.10439
32
-0.28493
13
-0.26607
23
0.09473
33
-0.29669
0
3DFACE
8
layer1
62
1
10
-0.29436
20
0.01252
30
-0.33737
11
-0.24641
21
0.09093
31
-0.34838
12
-0.26340
22
0.09921
32
-0.32767
13
-0.26340
23
0.09921
33
-0.32767
0
3DFACE
8
layer1
62
1
10
-0.26607
20
0.09473
30
-0.29669
11
-0.24641
21
0.09093
31
-0.34838
12
-0.29436
22
0.01252
32
-0.33737
13
-0.29849
23
0.01332
33
-0.32650
0
3DFACE
8
layer1
62
1
10
-0.28544
20
0.00696
30
-0.34241
11
-0.29436
21
0.01252
31
-0.33737
12
-0.26340
22
0.09921
32
-0.32767
13
-0.22099
23
0.07275
33
-0.35163
0
3DFACE
8
layer1
62
1
10
-0.31443
20
-0.03370
30
-0.33536
11
-0.29849
21
0.01332
31
-0.32650
12
-0.29436
22
0.01252
32
-0.33737
13
-0.29436
23
0.01252
33
-0.33737
0
3DFACE
8
layer1
62
1
10
-0.31443
20
-0.03370
30
-0.33536
11
-0.29542
21
0.00889
31
-0.31617
12
-0.29849
22
0.01332
32
-0.32650
13
-0.29849
23
0.01332
33
-0.32650
0
3DFACE
8
layer1
62
1
10
-0.31443
20
-0.03370
30
-0.33536
11
-0.28694
21
0.00182
31
-0.31242
12
-0.29542
22
0.00889
32
-0.31617
13
-0.29542
23
0.00889
33
-0.31617
0
3DFACE
8
layer1
62
1
10
-0.31443
20
-0.03370
30
-0.33536
11
-0.27802
21
-0.00374
31
-0.31746
12
-0.28694
22
0.00182
32
-0.31242
13
-0.28694
23
0.00182
33
-0.31242
0
3DFACE
8
layer1
62
1
10
-0.31443
20
-0.03370
30
-0.33536
11
-0.27389
21
-0.00454
31
-0.32833
12
-0.27802
22
-0.00374
32
-0.31746
13
-0.27802
23
-0.00374
33
-0.31746
0
3DFACE
8
layer1
62
1
10
-0.31443
20
-0.03370
30
-0.33536
11
-0.27696
21
-0.00011
31
-0.33866
12
-0.27389
22
-0.00454
32
-0.32833
13
-0.27389
23
-0.00454
33
-0.32833
0
3DFACE
8
layer1
62
1
10
-0.31443
20
-0.03370
30
-0.33536
11
-0.28544
21
0.00696
31
-0.34241
12
-0.27696
22
-0.00011
32
-0.33866
13
-0.27696
23
-0.00011
33
-0.33866
0
3DFACE
8
layer1
62
1
10
-0.31443
20
-0.03370
30
-0.33536
11
-0.29436
21
0.01252
31
-0.33737
12
-0.28544
22
0.00696
32
-0.34241
13
-0.28544
23
0.00696
33
-0.34241
0
3DFACE
8
layer1
62
1
10
-0.28544
20
0.00696
30
-0.34241
11
-0.22099
21
0.07275
31
-0.35163
12
-0.24364
22
0.08920
32
-0.34994
13
-0.24364
23
0.08920
33
-0.34994
0
3DFACE
8
layer1
62
1
10
-0.27696
20
-0.00011
30
-0.33866
11
-0.28544
21
0.00696
31
-0.34241
12
-0.24364
22
0.08920
32
-0.34994
13
-0.20332
23
0.05558
33
-0.33214
0
3DFACE
8
layer1
62
1
10
-0.27696
20
-0.00011
30
-0.33866
11
-0.20332
21
0.05558
31
-0.33214
12
-0.21836
22
0.07056
32
-0.35046
13
-0.21836
23
0.07056
33
-0.35046
0
3DFACE
8
layer1
62
1
10
-0.27389
20
-0.00454
30
-0.32833
11
-0.27696
21
-0.00011
31
-0.33866
12
-0.21836
22
0.07056
32
-0.35046
13
-0.20375
23
0.04948
33
-0.30132
0
3DFACE
8
layer1
62
1
10
-0.27389
20
-0.00454
30
-0.32833
11
-0.20375
21
0.04948
31
-0.30132
12
-0.20236
22
0.05421
32
-0.32893
13
-0.20236
23
0.05421
33
-0.32893
0
3DFACE
8
layer1
62
1
10
-0.27802
20
-0.00374
30
-0.31746
11
-0.27389
21
-0.00454
31
-0.32833
12
-0.20236
22
0.05421
32
-0.32893
13
-0.22202
23
0.05801
33
-0.27724
0
3DFACE
8
layer1
62
1
10
-0.27802
20
-0.00374
30
-0.31746
11
-0.22202
21
0.05801
31
-0.27724
12
-0.20503
22
0.04972
32
-0.29795
13
-0.20503
23
0.04972
33
-0.29795
0
3DFACE
8
layer1
62
1
10
-0.28694
20
0.00182
30
-0.31242
11
-0.27802
21
-0.00374
31
-0.31746
12
-0.20503
22
0.04972
32
-0.29795
13
-0.24744
23
0.07618
33
-0.27398
0
3DFACE
8
layer1
62
1
10
-0.28694
20
0.00182
30
-0.31242
11
-0.24744
21
0.07618
31
-0.27398
12
-0.22479
22
0.05974
32
-0.27567
13
-0.22479
23
0.05974
33
-0.27567
0
3DFACE
8
layer1
62
1
10
-0.29542
20
0.00889
30
-0.31617
11
-0.28694
21
0.00182
31
-0.31242
12
-0.22479
22
0.05974
32
-0.27567
13
-0.26511
23
0.09335
33
-0.29347
0
3DFACE
8
layer1
62
1
10
-0.29542
20
0.00889
30
-0.31617
11
-0.26511
21
0.09335
31
-0.29347
12
-0.25008
22
0.07838
32
-0.27515
13
-0.25008
23
0.07838
33
-0.27515
0
3DFACE
8
layer1
62
1
10
-0.29849
20
0.01332
30
-0.32650
11
-0.29542
21
0.00889
31
-0.31617
12
-0.25008
22
0.07838
32
-0.27515
13
-0.26469
23
0.09946
33
-0.32429
0
3DFACE
8
layer1
62
1
10
-0.29849
20
0.01332
30
-0.32650
11
-0.26469
21
0.09946
31
-0.32429
12
-0.26607
22
0.09473
32
-0.29669
13
-0.26607
23
0.09473
33
-0.29669
0
3DFACE
8
layer1
62
1
10
-0.26361
20
0.11363
30
0.28057
11
-0.23365
21
0.09570
31
0.30599
12
-0.23781
22
0.08371
32
0.26313
13
-0.23781
23
0.08371
33
0.26313
0
3DFACE
8
layer1
62
1
10
-0.22241
20
0.06822
30
0.25917
11
-0.23365
21
0.09570
31
0.30599
12
-0.26361
22
0.11363
32
0.28057
13
-0.25500
23
0.09261
33
0.24474
0
3DFACE
8
layer1
62
1
10
-0.27094
20
0.07838
30
0.27652
11
-0.23781
21
0.08371
31
0.26313
12
-0.23365
22
0.09570
32
0.30599
13
-0.26833
23
0.08591
33
0.30341
0
3DFACE
8
layer1
62
1
10
-0.24771
20
0.11363
30
0.31991
11
-0.26361
21
0.11363
31
0.28057
12
-0.23781
22
0.08371
32
0.26313
13
-0.21704
23
0.08371
33
0.31453
0
3DFACE
8
layer1
62
1
10
-0.22179
20
0.07774
30
0.28656
11
-0.25500
21
0.09261
31
0.24474
12
-0.26361
22
0.11363
32
0.28057
13
-0.26361
23
0.11363
33
0.28057
0
3DFACE
8
layer1
62
1
10
-0.22179
20
0.07774
30
0.28656
11
-0.22695
21
0.06287
31
0.23340
12
-0.25500
22
0.09261
32
0.24474
13
-0.25500
23
0.09261
33
0.24474
0
3DFACE
8
layer1
62
1
10
-0.22179
20
0.07774
30
0.28656
11
-0.19587
21
0.04184
31
0.25320
12
-0.22695
22
0.06287
32
0.23340
13
-0.22695
23
0.06287
33
0.23340
0
3DFACE
8
layer1
62
1
10
-0.22179
20
0.07774
30
0.28656
11
-0.17998
21
0.04184
31
0.29254
12
-0.19587
22
0.04184
32
0.25320
13
-0.19587
23
0.04184
33
0.25320
0
3DFACE
8
layer1
62
1
10
-0.22179
20
0.07774
30
0.28656
11
-0.18858
21
0.06287
31
0.32837
12
-0.17998
22
0.04184
32
0.29254
13
-0.17998
23
0.04184
33
0.29254
0
3DFACE
8
layer1
62
1
10
-0.22179
20
0.07774
30
0.28656
11
-0.21663
21
0.09261
31
0.33971
12
-0.18858
22
0.06287
32
0.32837
13
-0.18858
23
0.06287
33
0.32837
0
3DFACE
8
layer1
62
1
10
-0.22179
20
0.07774
30
0.28656
11
-0.24771
21
0.11363
31
0.31991
12
-0.21663
22
0.09261
32
0.33971
13
-0.21663
23
0.09261
33
0.33971
0
3DFACE
8
layer1
62
1
10
-0.22179
20
0.07774
30
0.28656
11
-0.26361
21
0.11363
31
0.28057
12
-0.24771
22
0.11363
32
0.31991
13
-0.24771
23
0.11363
33
0.31991
0
3DFACE
8
layer1
62
1
10
-0.22241
20
0.06822
30
0.25917
11
-0.25710
21
0.05843
31
0.25659
12
-0.26833
22
0.08591
32
0.30341
13
-0.23365
23
0.09570
33
0.30599
0
3DFACE
8
layer1
62
1
10
-0.27094
20
0.07838
30
0.27652
11
-0.25018
21
0.07838
31
0.32792
12
-0.21704
22
0.08371
32
0.31453
13
-0.23781
23
0.08371
33
0.26313
0
3DFACE
8
layer1
62
1
10
-0.25500
20
0.09261
30
0.24474
11
-0.24331
21
0.09716
31
0.28606
12
-0.22241
22
0.06822
32
0.25917
13
-0.22241
23
0.06822
33
0.25917
0
3DFACE
8
layer1
62
1
10
-0.20665
20
0.05831
30
0.27125
11
-0.24331
21
0.09716
31
0.28606
12
-0.25500
22
0.09261
32
0.24474
13
-0.22695
23
0.06287
33
0.23340
0
3DFACE
8
layer1
62
1
10
-0.25710
20
0.05843
30
0.25659
11
-0.22241
21
0.06822
31
0.25917
12
-0.24331
22
0.09716
32
0.28606
13
-0.27021
23
0.07659
33
0.27346
0
3DFACE
8
layer1
62
1
10
-0.20665
20
0.05831
30
0.27125
11
-0.23355
21
0.03774
31
0.25865
12
-0.27021
22
0.07659
32
0.27346
13
-0.24331
23
0.09716
33
0.28606
0
3DFACE
8
layer1
62
1
10
-0.22695
20
0.06287
30
0.23340
11
-0.24037
21
0.08725
31
0.26643
12
-0.20665
22
0.05831
32
0.27125
13
-0.20665
23
0.05831
33
0.27125
0
3DFACE
8
layer1
62
1
10
-0.19976
20
0.05978
30
0.29229
11
-0.24037
21
0.08725
31
0.26643
12
-0.22695
22
0.06287
32
0.23340
13
-0.19587
23
0.04184
33
0.25320
0
3DFACE
8
layer1
62
1
10
-0.23355
20
0.03774
30
0.25865
11
-0.20665
21
0.05831
31
0.27125
12
-0.24037
22
0.08725
32
0.26643
13
-0.25470
23
0.05589
33
0.25562
0
3DFACE
8
layer1
62
1
10
-0.19976
20
0.05978
30
0.29229
11
-0.21410
21
0.02842
31
0.28149
12
-0.25470
22
0.05589
32
0.25562
13
-0.24037
23
0.08725
33
0.26643
0
3DFACE
8
layer1
62
1
10
-0.19587
20
0.04184
30
0.25320
11
-0.22654
21
0.07177
31
0.25858
12
-0.19976
22
0.05978
32
0.29229
13
-0.19976
23
0.05978
33
0.29229
0
3DFACE
8
layer1
62
1
10
-0.20577
20
0.07177
30
0.30998
11
-0.22654
21
0.07177
31
0.25858
12
-0.19587
22
0.04184
32
0.25320
13
-0.17998
23
0.04184
33
0.29254
0
3DFACE
8
layer1
62
1
10
-0.21410
20
0.02842
30
0.28149
11
-0.19976
21
0.05978
31
0.29229
12
-0.22654
22
0.07177
32
0.25858
13
-0.23090
23
0.03594
33
0.26034
0
3DFACE
8
layer1
62
1
10
-0.20577
20
0.07177
30
0.30998
11
-0.21013
21
0.03594
31
0.31174
12
-0.23090
22
0.03594
32
0.26034
13
-0.22654
23
0.07177
33
0.25858
0
3DFACE
8
layer1
62
1
10
-0.17998
20
0.04184
30
0.29254
11
-0.20993
21
0.05978
31
0.26712
12
-0.20577
22
0.07177
32
0.30998
13
-0.20577
23
0.07177
33
0.30998
0
3DFACE
8
layer1
62
1
10
-0.22117
20
0.08725
30
0.31394
11
-0.20993
21
0.05978
31
0.26712
12
-0.17998
22
0.04184
32
0.29254
13
-0.18858
23
0.06287
33
0.32837
0
3DFACE
8
layer1
62
1
10
-0.21013
20
0.03594
30
0.31174
11
-0.20577
21
0.07177
31
0.30998
12
-0.20993
22
0.05978
32
0.26712
13
-0.21274
23
0.02842
33
0.28485
0
3DFACE
8
layer1
62
1
10
-0.22117
20
0.08725
30
0.31394
11
-0.22398
21
0.05589
31
0.33167
12
-0.21274
22
0.02842
32
0.28485
13
-0.20993
23
0.05978
33
0.26712
0
3DFACE
8
layer1
62
1
10
-0.18858
20
0.06287
30
0.32837
11
-0.20027
21
0.05831
31
0.28705
12
-0.22117
22
0.08725
32
0.31394
13
-0.22117
23
0.08725
33
0.31394
0
3DFACE
8
layer1
62
1
10
-0.23693
20
0.09716
30
0.30186
11
-0.20027
21
0.05831
31
0.28705
12
-0.18858
22
0.06287
32
0.32837
13
-0.21663
23
0.09261
33
0.33971
0
3DFACE
8
layer1
62
1
10
-0.22398
20
0.05589
30
0.33167
11
-0.22117
21
0.08725
31
0.31394
12
-0.20027
22
0.05831
32
0.28705
13
-0.21086
23
0.03774
33
0.31480
0
3DFACE
8
layer1
62
1
10
-0.23693
20
0.09716
30
0.30186
11
-0.24752
21
0.07659
31
0.32961
12
-0.21086
22
0.03774
32
0.31480
13
-0.20027
23
0.05831
33
0.28705
0
3DFACE
8
layer1
62
1
10
-0.21663
20
0.09261
30
0.33971
11
-0.20322
21
0.06822
31
0.30669
12
-0.23693
22
0.09716
32
0.30186
13
-0.23693
23
0.09716
33
0.30186
0
3DFACE
8
layer1
62
1
10
-0.24382
20
0.09570
30
0.28082
11
-0.20322
21
0.06822
31
0.30669
12
-0.21663
22
0.09261
32
0.33971
13
-0.24771
23
0.11363
33
0.31991
0
3DFACE
8
layer1
62
1
10
-0.24752
20
0.07659
30
0.32961
11
-0.23693
21
0.09716
31
0.30186
12
-0.20322
22
0.06822
32
0.30669
13
-0.22637
23
0.05843
33
0.33263
0
3DFACE
8
layer1
62
1
10
-0.24382
20
0.09570
30
0.28082
11
-0.26698
21
0.08591
31
0.30677
12
-0.22637
22
0.05843
32
0.33263
13
-0.20322
23
0.06822
33
0.30669
0
3DFACE
8
layer1
62
1
10
-0.24771
20
0.11363
30
0.31991
11
-0.21704
21
0.08371
31
0.31453
12
-0.24382
22
0.09570
32
0.28082
13
-0.24382
23
0.09570
33
0.28082
0
3DFACE
8
layer1
62
1
10
-0.26698
20
0.08591
30
0.30677
11
-0.24382
21
0.09570
31
0.28082
12
-0.21704
22
0.08371
32
0.31453
13
-0.25018
23
0.07838
33
0.32792
0
3DFACE
8
layer1
62
1
10
-0.30951
20
0.00393
30
0.31571
11
-0.27094
21
0.07838
31
0.27652
12
-0.26833
22
0.08591
32
0.30341
13
-0.26833
23
0.08591
33
0.30341
0
3DFACE
8
layer1
62
1
10
-0.25018
20
0.07838
30
0.32792
11
-0.27094
21
0.07838
31
0.27652
12
-0.30951
22
0.00393
32
0.31571
13
-0.30515
23
0.00393
33
0.32652
0
3DFACE
8
layer1
62
1
10
-0.30715
20
-0.00185
30
0.30587
11
-0.30951
21
0.00393
31
0.31571
12
-0.26833
22
0.08591
32
0.30341
13
-0.25710
23
0.05843
33
0.25659
0
3DFACE
8
layer1
62
1
10
-0.32927
20
-0.04022
30
0.32998
11
-0.30515
21
0.00393
31
0.32652
12
-0.30951
22
0.00393
32
0.31571
13
-0.30951
23
0.00393
33
0.31571
0
3DFACE
8
layer1
62
1
10
-0.32927
20
-0.04022
30
0.32998
11
-0.29661
21
-0.00185
31
0.33196
12
-0.30515
22
0.00393
32
0.32652
13
-0.30515
23
0.00393
33
0.32652
0
3DFACE
8
layer1
62
1
10
-0.32927
20
-0.04022
30
0.32998
11
-0.28890
21
-0.01002
31
0.32884
12
-0.29661
22
-0.00185
32
0.33196
13
-0.29661
23
-0.00185
33
0.33196
0
3DFACE
8
layer1
62
1
10
-0.32927
20
-0.04022
30
0.32998
11
-0.28654
21
-0.01580
31
0.31900
12
-0.28890
22
-0.01002
32
0.32884
13
-0.28890
23
-0.01002
33
0.32884
0
3DFACE
8
layer1
62
1
10
-0.32927
20
-0.04022
30
0.32998
11
-0.29090
21
-0.01580
31
0.30819
12
-0.28654
22
-0.01580
32
0.31900
13
-0.28654
23
-0.01580
33
0.31900
0
3DFACE
8
layer1
62
1
10
-0.32927
20
-0.04022
30
0.32998
11
-0.29944
21
-0.01002
31
0.30275
12
-0.29090
22
-0.01580
32
0.30819
13
-0.29090
23
-0.01580
33
0.30819
0
3DFACE
8
layer1
62
1
10
-0.32927
20
-0.04022
30
0.32998
11
-0.30715
21
-0.00185
31
0.30587
12
-0.29944
22
-0.01002
32
0.30275
13
-0.29944
23
-0.01002
33
0.30275
0
3DFACE
8
layer1
62
1
10
-0.32927
20
-0.04022
30
0.32998
11
-0.30951
21
0.00393
31
0.31571
12
-0.30715
22
-0.00185
32
0.30587
13
-0.30715
23
-0.00185
33
0.30587
0
3DFACE
8
layer1
62
1
10
-0.30715
20
-0.00185
30
0.30587
11
-0.25710
21
0.05843
31
0.25659
12
-0.27021
22
0.07659
32
0.27346
13
-0.27021
23
0.07659
33
0.27346
0
3DFACE
8
layer1
62
1
10
-0.29944
20
-0.01002
30
0.30275
11
-0.30715
21
-0.00185
31
0.30587
12
-0.27021
22
0.07659
32
0.27346
13
-0.23355
23
0.03774
33
0.25865
0
3DFACE
8
layer1
62
1
10
-0.29944
20
-0.01002
30
0.30275
11
-0.23355
21
0.03774
31
0.25865
12
-0.25470
22
0.05589
32
0.25562
13
-0.25470
23
0.05589
33
0.25562
0
3DFACE
8
layer1
62
1
10
-0.29090
20
-0.01580
30
0.30819
11
-0.29944
21
-0.01002
31
0.30275
12
-0.25470
22
0.05589
32
0.25562
13
-0.21410
23
0.02842
33
0.28149
0
3DFACE
8
layer1
62
1
10
-0.29090
20
-0.01580
30
0.30819
11
-0.21410
21
0.02842
31
0.28149
12
-0.23090
22
0.03594
32
0.26034
13
-0.23090
23
0.03594
33
0.26034
0
3DFACE
8
layer1
62
1
10
-0.28654
20
-0.01580
30
0.31900
11
-0.29090
21
-0.01580
31
0.30819
12
-0.23090
22
0.03594
32
0.26034
13
-0.21013
23
0.03594
33
0.31174
0
3DFACE
8
layer1
62
1
10
-0.28654
20
-0.01580
30
0.31900
11
-0.21013
21
0.03594
31
0.31174
12
-0.21274
22
0.02842
32
0.28485
13
-0.21274
23
0.02842
33
0.28485
0
3DFACE
8
layer1
62
1
10
-0.28890
20
-0.01002
30
0.32884
11
-0.28654
21
-0.01580
31
0.31900
12
-0.21274
22
0.02842
32
0.28485
13
-0.22398
23
0.05589
33
0.33167
0
3DFACE
8
layer1
62
1
10
-0.28890
20
-0.01002
30
0.32884
11
-0.22398
21
0.05589
31
0.33167
12
-0.21086
22
0.03774
32
0.31480
13
-0.21086
23
0.03774
33
0.31480
0
3DFACE
8
layer1
62
1
10
-0.29661
20
-0.00185
30
0.33196
11
-0.28890
21
-0.01002
31
0.32884
12
-0.21086
22
0.03774
32
0.31480
13
-0.24752
23
0.07659
33
0.32961
0
3DFACE
8
layer1
62
1
10
-0.29661
20
-0.00185
30
0.33196
11
-0.24752
21
0.07659
31
0.32961
12
-0.22637
22
0.05843
32
0.33263
13
-0.22637
23
0.05843
33
0.33263
0
3DFACE
8
layer1
62
1
10
-0.30515
20
0.00393
30
0.32652
11
-0.29661
21
-0.00185
31
0.33196
12
-0.22637
22
0.05843
32
0.33263
13
-0.26698
23
0.08591
33
0.30677
0
3DFACE
8
layer1
62
1
10
-0.30515
20
0.00393
30
0.32652
11
-0.26698
21
0.08591
31
0.30677
12
-0.25018
22
0.07838
32
0.32792
13
-0.25018
23
0.07838
33
0.32792
0
3DFACE
8
layer1
62
1
10
-0.28993
20
0.43639
30
0.03784
11
-0.29723
21
0.43433
31
0.03054
12
-0.30026
22
0.43433
32
0.03784
13
-0.30026
23
0.43433
33
0.03784
0
3DFACE
8
layer1
62
1
10
-0.28993
20
0.43639
30
0.03784
11
-0.28993
21
0.43433
31
0.02751
12
-0.29723
22
0.43433
32
0.03054
13
-0.29723
23
0.43433
33
0.03054
0
3DFACE
8
layer1
62
1
10
-0.28993
20
0.43639
30
0.03784
11
-0.28262
21
0.43433
31
0.03054
12
-0.28993
22
0.43433
32
0.02751
13
-0.28993
23
0.43433
33
0.02751
0
3DFACE
8
layer1
62
1
10
-0.28993
20
0.43639
30
0.03784
11
-0.27959
21
0.43433
31
0.03784
12
-0.28262
22
0.43433
32
0.03054
13
-0.28262
23
0.43433
33
0.03054
0
3DFACE
8
layer1
62
1
10
-0.28993
20
0.43639
30
0.03784
11
-0.28262
21
0.43433
31
0.04515
12
-0.27959
22
0.43433
32
0.03784
13
-0.27959
23
0.43433
33
0.03784
0
3DFACE
8
layer1
62
1
10
-0.28993
20
0.43639
30
0.03784
11
-0.28993
21
0.43433
31
0.04818
12
-0.28262
22
0.43433
32
0.04515
13
-0.28262
23
0.43433
33
0.04515
0
3DFACE
8
layer1
62
1
10
-0.28993
20
0.43639
30
0.03784
11
-0.29723
21
0.43433
31
0.04515
12
-0.28993
22
0.43433
32
0.04818
13
-0.28993
23
0.43433
33
0.04818
0
3DFACE
8
layer1
62
1
10
-0.28993
20
0.43639
30
0.03784
11
-0.30026
21
0.43433
31
0.03784
12
-0.29723
22
0.43433
32
0.04515
13
-0.29723
23
0.43433
33
0.04515
0
3DFACE
8
layer1
62
1
10
-0.30026
20
0.43433
30
0.03784
11
-0.29723
21
0.43433
31
0.03054
12
-0.30343
22
0.42848
32
0.02434
13
-0.30902
23
0.42848
33
0.03784
0
3DFACE
8
layer1
62
1
10
-0.29723
20
0.43433
30
0.03054
11
-0.28993
21
0.43433
31
0.02751
12
-0.28993
22
0.42848
32
0.01875
13
-0.30343
23
0.42848
33
0.02434
0
3DFACE
8
layer1
62
1
10
-0.28993
20
0.43433
30
0.02751
11
-0.28262
21
0.43433
31
0.03054
12
-0.27643
22
0.42848
32
0.02434
13
-0.28993
23
0.42848
33
0.01875
0
3DFACE
8
layer1
62
1
10
-0.28262
20
0.43433
30
0.03054
11
-0.27959
21
0.43433
31
0.03784
12
-0.27083
22
0.42848
32
0.03784
13
-0.27643
23
0.42848
33
0.02434
0
3DFACE
8
layer1
62
1
10
-0.27959
20
0.43433
30
0.03784
11
-0.28262
21
0.43433
31
0.04515
12
-0.27643
22
0.42848
32
0.05134
13
-0.27083
23
0.42848
33
0.03784
0
3DFACE
8
layer1
62
1
10
-0.28262
20
0.43433
30
0.04515
11
-0.28993
21
0.43433
31
0.04818
12
-0.28993
22
0.42848
32
0.05694
13
-0.27643
23
0.42848
33
0.05134
0
3DFACE
8
layer1
62
1
10
-0.28993
20
0.43433
30
0.04818
11
-0.29723
21
0.43433
31
0.04515
12
-0.30343
22
0.42848
32
0.05134
13
-0.28993
23
0.42848
33
0.05694
0
3DFACE
8
layer1
62
1
10
-0.29723
20
0.43433
30
0.04515
11
-0.30026
21
0.43433
31
0.03784
12
-0.30902
22
0.42848
32
0.03784
13
-0.30343
23
0.42848
33
0.05134
0
3DFACE
8
layer1
62
1
10
-0.30902
20
0.42848
30
0.03784
11
-0.30343
21
0.42848
31
0.02434
12
-0.30756
22
0.41972
32
0.02021
13
-0.31487
23
0.41972
33
0.03784
0
3DFACE
8
layer1
62
1
10
-0.30343
20
0.42848
30
0.02434
11
-0.28993
21
0.42848
31
0.01875
12
-0.28993
22
0.41972
32
0.01290
13
-0.30756
23
0.41972
33
0.02021
0
3DFACE
8
layer1
62
1
10
-0.28993
20
0.42848
30
0.01875
11
-0.27643
21
0.42848
31
0.02434
12
-0.27229
22
0.41972
32
0.02021
13
-0.28993
23
0.41972
33
0.01290
0
3DFACE
8
layer1
62
1
10
-0.27643
20
0.42848
30
0.02434
11
-0.27083
21
0.42848
31
0.03784
12
-0.26498
22
0.41972
32
0.03784
13
-0.27229
23
0.41972
33
0.02021
0
3DFACE
8
layer1
62
1
10
-0.27083
20
0.42848
30
0.03784
11
-0.27643
21
0.42848
31
0.05134
12
-0.27229
22
0.41972
32
0.05548
13
-0.26498
23
0.41972
33
0.03784
0
3DFACE
8
layer1
62
1
10
-0.27643
20
0.42848
30
0.05134
11
-0.28993
21
0.42848
31
0.05694
12
-0.28993
22
0.41972
32
0.06279
13
-0.27229
23
0.41972
33
0.05548
0
3DFACE
8
layer1
62
1
10
-0.28993
20
0.42848
30
0.05694
11
-0.30343
21
0.42848
31
0.05134
12
-0.30756
22
0.41972
32
0.05548
13
-0.28993
23
0.41972
33
0.06279
0
3DFACE
8
layer1
62
1
10
-0.30343
20
0.42848
30
0.05134
11
-0.30902
21
0.42848
31
0.03784
12
-0.31487
22
0.41972
32
0.03784
13
-0.30756
23
0.41972
33
0.05548
0
3DFACE
8
layer1
62
1
10
-0.31487
20
0.41972
30
0.03784
11
-0.30756
21
0.41972
31
0.02021
12
-0.30902
22
0.40939
32
0.01875
13
-0.31693
23
0.40939
33
0.03784
0
3DFACE
8
layer1
62
1
10
-0.30756
20
0.41972
30
0.02021
11
-0.28993
21
0.41972
31
0.01290
12
-0.28993
22
0.40939
32
0.01084
13
-0.30902
23
0.40939
33
0.01875
0
3DFACE
8
layer1
62
1
10
-0.28993
20
0.41972
30
0.01290
11
-0.27229
21
0.41972
31
0.02021
12
-0.27083
22
0.40939
32
0.01875
13
-0.28993
23
0.40939
33
0.01084
0
3DFACE
8
layer1
62
1
10
-0.27229
20
0.41972
30
0.02021
11
-0.26498
21
0.41972
31
0.03784
12
-0.26293
22
0.40939
32
0.03784
13
-0.27083
23
0.40939
33
0.01875
0
3DFACE
8
layer1
62
1
10
-0.26498
20
0.41972
30
0.03784
11
-0.27229
21
0.41972
31
0.05548
12
-0.27083
22
0.40939
32
0.05694
13
-0.26293
23
0.40939
33
0.03784
0
3DFACE
8
layer1
62
1
10
-0.27229
20
0.41972
30
0.05548
11
-0.28993
21
0.41972
31
0.06279
12
-0.28993
22
0.40939
32
0.06484
13
-0.27083
23
0.40939
33
0.05694
0
3DFACE
8
layer1
62
1
10
-0.28993
20
0.41972
30
0.06279
11
-0.30756
21
0.41972
31
0.05548
12
-0.30902
22
0.40939
32
0.05694
13
-0.28993
23
0.40939
33
0.06484
0
3DFACE
8
layer1
62
1
10
-0.30756
20
0.41972
30
0.05548
11
-0.31487
21
0.41972
31
0.03784
12
-0.31693
22
0.40939
32
0.03784
13
-0.30902
23
0.40939
33
0.05694
0
3DFACE
8
layer1
62
1
10
-0.31693
20
0.40939
30
0.03784
11
-0.30902
21
0.40939
31
0.01875
12
-0.30756
22
0.39905
32
0.02021
13
-0.31487
23
0.39905
33
0.03784
0
3DFACE
8
layer1
62
1
10
-0.30902
20
0.40939
30
0.01875
11
-0.28993
21
0.40939
31
0.01084
12
-0.28993
22
0.39905
32
0.01290
13
-0.30756
23
0.39905
33
0.02021
0
3DFACE
8
layer1
62
1
10
-0.28993
20
0.40939
30
0.01084
11
-0.27083
21
0.40939
31
0.01875
12
-0.27229
22
0.39905
32
0.02021
13
-0.28993
23
0.39905
33
0.01290
0
3DFACE
8
layer1
62
1
10
-0.27083
20
0.40939
30
0.01875
11
-0.26293
21
0.40939
31
0.03784
12
-0.26498
22
0.39905
32
0.03784
13
-0.27229
23
0.39905
33
0.02021
0
3DFACE
8
layer1
62
1
10
-0.26293
20
0.40939
30
0.03784
11
-0.27083
21
0.40939
31
0.05694
12
-0.27229
22
0.39905
32
0.05548
13
-0.26498
23
0.39905
33
0.03784
0
3DFACE
8
layer1
62
1
10
-0.27083
20
0.40939
30
0.05694
11
-0.28993
21
0.40939
31
0.06484
12
-0.28993
22
0.39905
32
0.06279
13
-0.27229
23
0.39905
33
0.05548
0
3DFACE
8
layer1
62
1
10
-0.28993
20
0.40939
30
0.06484
11
-0.30902
21
0.40939
31
0.05694
12
-0.30756
22
0.39905
32
0.05548
13
-0.28993
23
0.39905
33
0.06279
0
3DFACE
8
layer1
62
1
10
-0.30902
20
0.40939
30
0.05694
11
-0.31693
21
0.40939
31
0.03784
12
-0.31487
22
0.39905
32
0.03784
13
-0.30756
23
0.39905
33
0.05548
0
3DFACE
8
layer1
62
1
10
-0.31487
20
0.39905
30
0.03784
11
-0.30756
21
0.39905
31
0.02021
12
-0.30343
22
0.39029
32
0.02434
13
-0.30902
23
0.39029
33
0.03784
0
3DFACE
8
layer1
62
1
10
-0.30756
20
0.39905
30
0.02021
11
-0.28993
21
0.39905
31
0.01290
12
-0.28993
22
0.39029
32
0.01875
13
-0.30343
23
0.39029
33
0.02434
0
3DFACE
8
layer1
62
1
10
-0.28993
20
0.39905
30
0.01290
11
-0.27229
21
0.39905
31
0.02021
12
-0.27643
22
0.39029
32
0.02434
13
-0.28993
23
0.39029
33
0.01875
0
3DFACE
8
layer1
62
1
10
-0.27229
20
0.39905
30
0.02021
11
-0.26498
21
0.39905
31
0.03784
12
-0.27083
22
0.39029
32
0.03784
13
-0.27643
23
0.39029
33
0.02434
0
3DFACE
8
layer1
62
1
10
-0.26498
20
0.39905
30
0.03784
11
-0.27229
21
0.39905
31
0.05548
12
-0.27643
22
0.39029
32
0.05134
13
-0.27083
23
0.39029
33
0.03784
0
3DFACE
8
layer1
62
1
10
-0.27229
20
0.39905
30
0.05548
11
-0.28993
21
0.39905
31
0.06279
12
-0.28993
22
0.39029
32
0.05694
13
-0.27643
23
0.39029
33
0.05134
0
3DFACE
8
layer1
62
1
10
-0.28993
20
0.39905
30
0.06279
11
-0.30756
21
0.39905
31
0.05548
12
-0.30343
22
0.39029
32
0.05134
13
-0.28993
23
0.39029
33
0.05694
0
3DFACE
8
layer1
62
1
10
-0.30756
20
0.39905
30
0.05548
11
-0.31487
21
0.39905
31
0.03784
12
-0.30902
22
0.39029
32
0.03784
13
-0.30343
23
0.39029
33
0.05134
0
3DFACE
8
layer1
62
1
10
-0.30902
20
0.39029
30
0.03784
11
-0.30343
21
0.39029
31
0.02434
12
-0.29723
22
0.38444
32
0.03054
13
-0.30026
23
0.38444
33
0.03784
0
3DFACE
8
layer1
62
1
10
-0.30343
20
0.39029
30
0.02434
11
-0.28993
21
0.39029
31
0.01875
12
-0.28993
22
0.38444
32
0.02751
13
-0.29723
23
0.38444
33
0.03054
0
3DFACE
8
layer1
62
1
10
-0.28993
20
0.39029
30
0.01875
11
-0.27643
21
0.39029
31
0.02434
12
-0.28262
22
0.38444
32
0.03054
13
-0.28993
23
0.38444
33
0.02751
0
3DFACE
8
layer1
62
1
10
-0.27643
20
0.39029
30
0.02434
11
-0.27083
21
0.39029
31
0.03784
12
-0.27959
22
0.38444
32
0.03784
13
-0.28262
23
0.38444
33
0.03054
0
3DFACE
8
layer1
62
1
10
-0.27083
20
0.39029
30
0.03784
11
-0.27643
21
0.39029
31
0.05134
12
-0.28262
22
0.38444
32
0.04515
13
-0.27959
23
0.38444
33
0.03784
0
3DFACE
8
layer1
62
1
10
-0.27643
20
0.39029
30
0.05134
11
-0.28993
21
0.39029
31
0.05694
12
-0.28993
22
0.38444
32
0.04818
13
-0.28262
23
0.38444
33
0.04515
0
3DFACE
8
layer1
62
1
10
-0.28993
20
0.39029
30
0.05694
11
-0.30343
21
0.39029
31
0.05134
12
-0.29723
22
0.38444
32
0.04515
13
-0.28993
23
0.38444
33
0.04818
0
3DFACE
8
layer1
62
1
10
-0.30343
20
0.39029
30
0.05134
11
-0.30902
21
0.39029
31
0.03784
12
-0.30026
22
0.38444
32
0.03784
13
-0.29723
23
0.38444
33
0.04515
0
3DFACE
8
layer1
62
1
10
-0.30026
20
0.38444
30
0.03784
11
-0.29723
21
0.38444
31
0.03054
12
-0.28993
22
0.38239
32
0.03784
13
-0.28993
23
0.38239
33
0.03784
0
3DFACE
8
layer1
62
1
10
-0.29723
20
0.38444
30
0.03054
11
-0.28993
21
0.38444
31
0.02751
12
-0.28993
22
0.38239
32
0.03784
13
-0.28993
23
0.38239
33
0.03784
0
3DFACE
8
layer1
62
1
10
-0.28993
20
0.38444
30
0.02751
11
-0.28262
21
0.38444
31
0.03054
12
-0.28993
22
0.38239
32
0.03784
13
-0.28993
23
0.38239
33
0.03784
0
3DFACE
8
layer1
62
1
10
-0.28262
20
0.38444
30
0.03054
11
-0.27959
21
0.38444
31
0.03784
12
-0.28993
22
0.38239
32
0.03784
13
-0.28993
23
0.38239
33
0.03784
0
3DFACE
8
layer1
62
1
10
-0.27959
20
0.38444
30
0.03784
11
-0.28262
21
0.38444
31
0.04515
12
-0.28993
22
0.38239
32
0.03784
13
-0.28993
23
0.38239
33
0.03784
0
3DFACE
8
layer1
62
1
10
-0.28262
20
0.38444
30
0.04515
11
-0.28993
21
0.38444
31
0.04818
12
-0.28993
22
0.38239
32
0.03784
13
-0.28993
23
0.38239
33
0.03784
0
3DFACE
8
layer1
62
1
10
-0.28993
20
0.38444
30
0.04818
11
-0.29723
21
0.38444
31
0.04515
12
-0.28993
22
0.38239
32
0.03784
13
-0.28993
23
0.38239
33
0.03784
0
3DFACE
8
layer1
62
1
10
-0.29723
20
0.38444
30
0.04515
11
-0.30026
21
0.38444
31
0.03784
12
-0.28993
22
0.38239
32
0.03784
13
-0.28993
23
0.38239
33
0.03784
0
3DFACE
8
layer1
62
1
10
-0.29562
20
0.43639
30
-0.07197
11
-0.30596
21
0.43433
31
-0.07197
12
-0.30293
22
0.43433
32
-0.06466
13
-0.30293
23
0.43433
33
-0.06466
0
3DFACE
8
layer1
62
1
10
-0.29562
20
0.43639
30
-0.07197
11
-0.30293
21
0.43433
31
-0.06466
12
-0.29562
22
0.43433
32
-0.06163
13
-0.29562
23
0.43433
33
-0.06163
0
3DFACE
8
layer1
62
1
10
-0.29562
20
0.43639
30
-0.07197
11
-0.29562
21
0.43433
31
-0.06163
12
-0.28832
22
0.43433
32
-0.06466
13
-0.28832
23
0.43433
33
-0.06466
0
3DFACE
8
layer1
62
1
10
-0.29562
20
0.43639
30
-0.07197
11
-0.28832
21
0.43433
31
-0.06466
12
-0.28529
22
0.43433
32
-0.07197
13
-0.28529
23
0.43433
33
-0.07197
0
3DFACE
8
layer1
62
1
10
-0.29562
20
0.43639
30
-0.07197
11
-0.28529
21
0.43433
31
-0.07197
12
-0.28832
22
0.43433
32
-0.07927
13
-0.28832
23
0.43433
33
-0.07927
0
3DFACE
8
layer1
62
1
10
-0.29562
20
0.43639
30
-0.07197
11
-0.28832
21
0.43433
31
-0.07927
12
-0.29562
22
0.43433
32
-0.08230
13
-0.29562
23
0.43433
33
-0.08230
0
3DFACE
8
layer1
62
1
10
-0.29562
20
0.43639
30
-0.07197
11
-0.29562
21
0.43433
31
-0.08230
12
-0.30293
22
0.43433
32
-0.07927
13
-0.30293
23
0.43433
33
-0.07927
0
3DFACE
8
layer1
62
1
10
-0.29562
20
0.43639
30
-0.07197
11
-0.30293
21
0.43433
31
-0.07927
12
-0.30596
22
0.43433
32
-0.07197
13
-0.30596
23
0.43433
33
-0.07197
0
3DFACE
8
layer1
62
1
10
-0.30596
20
0.43433
30
-0.07197
11
-0.31472
21
0.42848
31
-0.07197
12
-0.30912
22
0.42848
32
-0.05847
13
-0.30293
23
0.43433
33
-0.06466
0
3DFACE
8
layer1
62
1
10
-0.30293
20
0.43433
30
-0.06466
11
-0.30912
21
0.42848
31
-0.05847
12
-0.29562
22
0.42848
32
-0.05287
13
-0.29562
23
0.43433
33
-0.06163
0
3DFACE
8
layer1
62
1
10
-0.29562
20
0.43433
30
-0.06163
11
-0.29562
21
0.42848
31
-0.05287
12
-0.28212
22
0.42848
32
-0.05847
13
-0.28832
23
0.43433
33
-0.06466
0
3DFACE
8
layer1
62
1
10
-0.28832
20
0.43433
30
-0.06466
11
-0.28212
21
0.42848
31
-0.05847
12
-0.27653
22
0.42848
32
-0.07197
13
-0.28529
23
0.43433
33
-0.07197
0
3DFACE
8
layer1
62
1
10
-0.28529
20
0.43433
30
-0.07197
11
-0.27653
21
0.42848
31
-0.07197
12
-0.28212
22
0.42848
32
-0.08547
13
-0.28832
23
0.43433
33
-0.07927
0
3DFACE
8
layer1
62
1
10
-0.28832
20
0.43433
30
-0.07927
11
-0.28212
21
0.42848
31
-0.08547
12
-0.29562
22
0.42848
32
-0.09106
13
-0.29562
23
0.43433
33
-0.08230
0
3DFACE
8
layer1
62
1
10
-0.29562
20
0.43433
30
-0.08230
11
-0.29562
21
0.42848
31
-0.09106
12
-0.30912
22
0.42848
32
-0.08547
13
-0.30293
23
0.43433
33
-0.07927
0
3DFACE
8
layer1
62
1
10
-0.30293
20
0.43433
30
-0.07927
11
-0.30912
21
0.42848
31
-0.08547
12
-0.31472
22
0.42848
32
-0.07197
13
-0.30596
23
0.43433
33
-0.07197
0
3DFACE
8
layer1
62
1
10
-0.31472
20
0.42848
30
-0.07197
11
-0.32057
21
0.41972
31
-0.07197
12
-0.31326
22
0.41972
32
-0.05433
13
-0.30912
23
0.42848
33
-0.05847
0
3DFACE
8
layer1
62
1
10
-0.30912
20
0.42848
30
-0.05847
11
-0.31326
21
0.41972
31
-0.05433
12
-0.29562
22
0.41972
32
-0.04702
13
-0.29562
23
0.42848
33
-0.05287
0
3DFACE
8
layer1
62
1
10
-0.29562
20
0.42848
30
-0.05287
11
-0.29562
21
0.41972
31
-0.04702
12
-0.27799
22
0.41972
32
-0.05433
13
-0.28212
23
0.42848
33
-0.05847
0
3DFACE
8
layer1
62
1
10
-0.28212
20
0.42848
30
-0.05847
11
-0.27799
21
0.41972
31
-0.05433
12
-0.27068
22
0.41972
32
-0.07197
13
-0.27653
23
0.42848
33
-0.07197
0
3DFACE
8
layer1
62
1
10
-0.27653
20
0.42848
30
-0.07197
11
-0.27068
21
0.41972
31
-0.07197
12
-0.27799
22
0.41972
32
-0.08960
13
-0.28212
23
0.42848
33
-0.08547
0
3DFACE
8
layer1
62
1
10
-0.28212
20
0.42848
30
-0.08547
11
-0.27799
21
0.41972
31
-0.08960
12
-0.29562
22
0.41972
32
-0.09691
13
-0.29562
23
0.42848
33
-0.09106
0
3DFACE
8
layer1
62
1
10
-0.29562
20
0.42848
30
-0.09106
11
-0.29562
21
0.41972
31
-0.09691
12
-0.31326
22
0.41972
32
-0.08960
13
-0.30912
23
0.42848
33
-0.08547
0
3DFACE
8
layer1
62
1
10
-0.30912
20
0.42848
30
-0.08547
11
-0.31326
21
0.41972
31
-0.08960
12
-0.32057
22
0.41972
32
-0.07197
13
-0.31472
23
0.42848
33
-0.07197
0
3DFACE
8
layer1
62
1
10
-0.32057
20
0.41972
30
-0.07197
11
-0.32262
21
0.40939
31
-0.07197
12
-0.31472
22
0.40939
32
-0.05287
13
-0.31326
23
0.41972
33
-0.05433
0
3DFACE
8
layer1
62
1
10
-0.31326
20
0.41972
30
-0.05433
11
-0.31472
21
0.40939
31
-0.05287
12
-0.29562
22
0.40939
32
-0.04497
13
-0.29562
23
0.41972
33
-0.04702
0
3DFACE
8
layer1
62
1
10
-0.29562
20
0.41972
30
-0.04702
11
-0.29562
21
0.40939
31
-0.04497
12
-0.27653
22
0.40939
32
-0.05287
13
-0.27799
23
0.41972
33
-0.05433
0
3DFACE
8
layer1
62
1
10
-0.27799
20
0.41972
30
-0.05433
11
-0.27653
21
0.40939
31
-0.05287
12
-0.26862
22
0.40939
32
-0.07197
13
-0.27068
23
0.41972
33
-0.07197
0
3DFACE
8
layer1
62
1
10
-0.27068
20
0.41972
30
-0.07197
11
-0.26862
21
0.40939
31
-0.07197
12
-0.27653
22
0.40939
32
-0.09106
13
-0.27799
23
0.41972
33
-0.08960
0
3DFACE
8
layer1
62
1
10
-0.27799
20
0.41972
30
-0.08960
11
-0.27653
21
0.40939
31
-0.09106
12
-0.29562
22
0.40939
32
-0.09897
13
-0.29562
23
0.41972
33
-0.09691
0
3DFACE
8
layer1
62
1
10
-0.29562
20
0.41972
30
-0.09691
11
-0.29562
21
0.40939
31
-0.09897
12
-0.31472
22
0.40939
32
-0.09106
13
-0.31326
23
0.41972
33
-0.08960
0
3DFACE
8
layer1
62
1
10
-0.31326
20
0.41972
30
-0.08960
11
-0.31472
21
0.40939
31
-0.09106
12
-0.32262
22
0.40939
32
-0.07197
13
-0.32057
23
0.41972
33
-0.07197
0
3DFACE
8
layer1
62
1
10
-0.32262
20
0.40939
30
-0.07197
11
-0.32057
21
0.39905
31
-0.07197
12
-0.31326
22
0.39905
32
-0.05433
13
-0.31472
23
0.40939
33
-0.05287
0
3DFACE
8
layer1
62
1
10
-0.31472
20
0.40939
30
-0.05287
11
-0.31326
21
0.39905
31
-0.05433
12
-0.29562
22
0.39905
32
-0.04702
13
-0.29562
23
0.40939
33
-0.04497
0
3DFACE
8
layer1
62
1
10
-0.29562
20
0.40939
30
-0.04497
11
-0.29562
21
0.39905
31
-0.04702
12
-0.27799
22
0.39905
32
-0.05433
13
-0.27653
23
0.40939
33
-0.05287
0
3DFACE
8
layer1
62
1
10
-0.27653
20
0.40939
30
-0.05287
11
-0.27799
21
0.39905
31
-0.05433
12
-0.27068
22
0.39905
32
-0.07197
13
-0.26862
23
0.40939
33
-0.07197
0
3DFACE
8
layer1
62
1
10
-0.26862
20
0.40939
30
-0.07197
11
-0.27068
21
0.39905
31
-0.07197
12
-0.27799
22
0.39905
32
-0.08960
13
-0.27653
23
0.40939
33
-0.09106
0
3DFACE
8
layer1
62
1
10
-0.27653
20
0.40939
30
-0.09106
11
-0.27799
21
0.39905
31
-0.08960
12
-0.29562
22
0.39905
32
-0.09691
13
-0.29562
23
0.40939
33
-0.09897
0
3DFACE
8
layer1
62
1
10
-0.29562
20
0.40939
30
-0.09897
11
-0.29562
21
0.39905
31
-0.09691
12
-0.31326
22
0.39905
32
-0.08960
13
-0.31472
23
0.40939
33
-0.09106
0
3DFACE
8
layer1
62
1
10
-0.31472
20
0.40939
30
-0.09106
11
-0.31326
21
0.39905
31
-0.08960
12
-0.32057
22
0.39905
32
-0.07197
13
-0.32262
23
0.40939
33
-0.07197
0
3DFACE
8
layer1
62
1
10
-0.32057
20
0.39905
30
-0.07197
11
-0.31472
21
0.39029
31
-0.07197
12
-0.30912
22
0.39029
32
-0.05847
13
-0.31326
23
0.39905
33
-0.05433
0
3DFACE
8
layer1
62
1
10
-0.31326
20
0.39905
30
-0.05433
11
-0.30912
21
0.39029
31
-0.05847
12
-0.29562
22
0.39029
32
-0.05287
13
-0.29562
23
0.39905
33
-0.04702
0
3DFACE
8
layer1
62
1
10
-0.29562
20
0.39905
30
-0.04702
11
-0.29562
21
0.39029
31
-0.05287
12
-0.28212
22
0.39029
32
-0.05847
13
-0.27799
23
0.39905
33
-0.05433
0
3DFACE
8
layer1
62
1
10
-0.27799
20
0.39905
30
-0.05433
11
-0.28212
21
0.39029
31
-0.05847
12
-0.27653
22
0.39029
32
-0.07197
13
-0.27068
23
0.39905
33
-0.07197
0
3DFACE
8
layer1
62
1
10
-0.27068
20
0.39905
30
-0.07197
11
-0.27653
21
0.39029
31
-0.07197
12
-0.28212
22
0.39029
32
-0.08547
13
-0.27799
23
0.39905
33
-0.08960
0
3DFACE
8
layer1
62
1
10
-0.27799
20
0.39905
30
-0.08960
11
-0.28212
21
0.39029
31
-0.08547
12
-0.29562
22
0.39029
32
-0.09106
13
-0.29562
23
0.39905
33
-0.09691
0
3DFACE
8
layer1
62
1
10
-0.29562
20
0.39905
30
-0.09691
11
-0.29562
21
0.39029
31
-0.09106
12
-0.30912
22
0.39029
32
-0.08547
13
-0.31326
23
0.39905
33
-0.08960
0
3DFACE
8
layer1
62
1
10
-0.31326
20
0.39905
30
-0.08960
11
-0.30912
21
0.39029
31
-0.08547
12
-0.31472
22
0.39029
32
-0.07197
13
-0.32057
23
0.39905
33
-0.07197
0
3DFACE
8
layer1
62
1
10
-0.31472
20
0.39029
30
-0.07197
11
-0.30596
21
0.38444
31
-0.07197
12
-0.30293
22
0.38444
32
-0.06466
13
-0.30912
23
0.39029
33
-0.05847
0
3DFACE
8
layer1
62
1
10
-0.30912
20
0.39029
30
-0.05847
11
-0.30293
21
0.38444
31
-0.06466
12
-0.29562
22
0.38444
32
-0.06163
13
-0.29562
23
0.39029
33
-0.05287
0
3DFACE
8
layer1
62
1
10
-0.29562
20
0.39029
30
-0.05287
11
-0.29562
21
0.38444
31
-0.06163
12
-0.28832
22
0.38444
32
-0.06466
13
-0.28212
23
0.39029
33
-0.05847
0
3DFACE
8
layer1
62
1
10
-0.28212
20
0.39029
30
-0.05847
11
-0.28832
21
0.38444
31
-0.06466
12
-0.28529
22
0.38444
32
-0.07197
13
-0.27653
23
0.39029
33
-0.07197
0
3DFACE
8
layer1
62
1
10
-0.27653
20
0.39029
30
-0.07197
11
-0.28529
21
0.38444
31
-0.07197
12
-0.28832
22
0.38444
32
-0.07927
13
-0.28212
23
0.39029
33
-0.08547
0
3DFACE
8
layer1
62
1
10
-0.28212
20
0.39029
30
-0.08547
11
-0.28832
21
0.38444
31
-0.07927
12
-0.29562
22
0.38444
32
-0.08230
13
-0.29562
23
0.39029
33
-0.09106
0
3DFACE
8
layer1
62
1
10
-0.29562
20
0.39029
30
-0.09106
11
-0.29562
21
0.38444
31
-0.08230
12
-0.30293
22
0.38444
32
-0.07927
13
-0.30912
23
0.39029
33
-0.08547
0
3DFACE
8
layer1
62
1
10
-0.30912
20
0.39029
30
-0.08547
11
-0.30293
21
0.38444
31
-0.07927
12
-0.30596
22
0.38444
32
-0.07197
13
-0.31472
23
0.39029
33
-0.07197
0
3DFACE
8
layer1
62
1
10
-0.30596
20
0.38444
30
-0.07197
11
-0.29562
21
0.38239
31
-0.07197
12
-0.30293
22
0.38444
32
-0.06466
13
-0.30293
23
0.38444
33
-0.06466
0
3DFACE
8
layer1
62
1
10
-0.30293
20
0.38444
30
-0.06466
11
-0.29562
21
0.38239
31
-0.07197
12
-0.29562
22
0.38444
32
-0.06163
13
-0.29562
23
0.38444
33
-0.06163
0
3DFACE
8
layer1
62
1
10
-0.29562
20
0.38444
30
-0.06163
11
-0.29562
21
0.38239
31
-0.07197
12
-0.28832
22
0.38444
32
-0.06466
13
-0.28832
23
0.38444
33
-0.06466
0
3DFACE
8
layer1
62
1
10
-0.28832
20
0.38444
30
-0.06466
11
-0.29562
21
0.38239
31
-0.07197
12
-0.28529
22
0.38444
32
-0.07197
13
-0.28529
23
0.38444
33
-0.07197
0
3DFACE
8
layer1
62
1
10
-0.28529
20
0.38444
30
-0.07197
11
-0.29562
21
0.38239
31
-0.07197
12
-0.28832
22
0.38444
32
-0.07927
13
-0.28832
23
0.38444
33
-0.07927
0
3DFACE
8
layer1
62
1
10
-0.28832
20
0.38444
30
-0.07927
11
-0.29562
21
0.38239
31
-0.07197
12
-0.29562
22
0.38444
32
-0.08230
13
-0.29562
23
0.38444
33
-0.08230
0
3DFACE
8
layer1
62
1
10
-0.29562
20
0.38444
30
-0.08230
11
-0.29562
21
0.38239
31
-0.07197
12
-0.30293
22
0.38444
32
-0.07927
13
-0.30293
23
0.38444
33
-0.07927
0
3DFACE
8
layer1
62
1
10
-0.30293
20
0.38444
30
-0.07927
11
-0.29562
21
0.38239
31
-0.07197
12
-0.30596
22
0.38444
32
-0.07197
13
-0.30596
23
0.38444
33
-0.07197
0
ENDSEC
0
EOF
